<?xml version="1.0" encoding="UTF-8"?>
<svg id="svg1" xmlns="http://www.w3.org/2000/svg" version="1.1" xmlns:inkscape="http://www.inkscape.org/namespaces/inkscape" xmlns:sodipodi="http://sodipodi.sourceforge.net/DTD/sodipodi-0.dtd" xmlns:svg="http://www.w3.org/2000/svg" viewBox="0 0 260 260">
  <!-- Generator: Adobe Illustrator 29.0.0, SVG Export Plug-In . SVG Version: 2.1.0 Build 186)  -->
  <defs>
    <style>
      .st0 {
        fill: #100f0d;
        fill-rule: evenodd;
      }
    </style>
  </defs>
  <sodipodi:namedview id="namedview1" bordercolor="#000000" borderopacity="0.25" inkscape:deskcolor="#d1d1d1" inkscape:pagecheckerboard="0" inkscape:pageopacity="0.0" inkscape:showpageshadow="2" pagecolor="#ffffff">
    <inkscape:page id="page1" x="0" y="0" width="3779.5332" height="3779.5332" bleed="0" inkscape:label="1" margin="0"/>
  </sodipodi:namedview>
  <g id="g1" inkscape:groupmode="layer" inkscape:label="1">
    <g id="group-R5">
      <path id="path3" class="st0" d="M103.9,207c-50.1-25.6-74.8-73.1-40.2-117.1-27.7,67.5,68.4,78.4,86.4,112.5-11.6-37.7-111.2-49-76.6-122.6-12.4,3.9-20.9,11-30,21.1,13.5-49.5,49.4-61.9,69.7-60.6-1.8-3.1-6.8-6.2-12.8-6.7,14.5-6.6,36.2-4.7,44.7,2.4,3.2-6,14.5-5.9,22-13.2.6,9.7-1.4,16.3-6,19.7,5.2,5.6,9.9,10.9,13.9,15.8,10.8,13.1,2.9,8.9,8.5,20.6,2.3,4.2,10.7,16.3,25.1,36.3,1.4,3.7.4,6-2.8,9.7,1.3,3.8-4.4,8.5-10.9,10-7.9,1.8-17.1-.5-18.1-5.2-.7-3.1-2.3-6.7-4.6-8.1-2.1-2.5-11.7-6-28.9-10.4-7.3-1.7-13.8-11-14.3-19.1-27.6,41,96.4,92.7,21,145.4,3-26.4-48-41-65.2-61.5,2,9.2,10.7,18.2,19.1,30.9h0"/>
    </g>
  </g>
</svg>